/* XPM */
static char * dock_xpm[] = {
"24 24 182 2",
"  	c None",
". 	c #000000",
"+ 	c #030303",
"@ 	c #F6F5F0",
"# 	c #F3E4AE",
"$ 	c #E1BB66",
"% 	c #DEB65B",
"& 	c #F3E7B9",
"* 	c #EED680",
"= 	c #D1940C",
"- 	c #F2E4AD",
"; 	c #F3ECCD",
"> 	c #F5EBC1",
", 	c #F3EDD1",
"' 	c #986B07",
") 	c #EFE7C1",
"! 	c #8F6406",
"~ 	c #EFE4B6",
"{ 	c #EFE5BA",
"] 	c #4C4F4C",
"^ 	c #B8C1B8",
"/ 	c #7E907E",
"( 	c #165116",
"_ 	c #C0AF73",
": 	c #A3B5A3",
"< 	c #7D927D",
"[ 	c #3B5C3B",
"} 	c #BCC6BC",
"| 	c #798979",
"1 	c #255425",
"2 	c #005100",
"3 	c #B5C6B5",
"4 	c #AEC0AE",
"5 	c #9EB29E",
"6 	c #889E88",
"7 	c #6D836D",
"8 	c #476647",
"9 	c #CED6CE",
"0 	c #98A498",
"a 	c #446444",
"b 	c #002F00",
"c 	c #002B00",
"d 	c #002500",
"e 	c #A9BDA9",
"f 	c #ABBDAB",
"g 	c #A6B9A6",
"h 	c #9BAF9B",
"i 	c #87A087",
"j 	c #799379",
"k 	c #7C927C",
"l 	c #627C62",
"m 	c #C6D3C6",
"n 	c #B8C3B8",
"o 	c #859685",
"p 	c #516D51",
"q 	c #3B623B",
"r 	c #376237",
"s 	c #345F34",
"t 	c #3B643B",
"u 	c #95AC95",
"v 	c #93AB93",
"w 	c #8DA68D",
"x 	c #7D987D",
"y 	c #718F71",
"z 	c #759175",
"A 	c #8FA38F",
"B 	c #416241",
"C 	c #D2DDD2",
"D 	c #E7EDE7",
"E 	c #E3EAE3",
"F 	c #D2DBD2",
"G 	c #A9B6A9",
"H 	c #7E937E",
"I 	c #617D61",
"J 	c #547454",
"K 	c #517251",
"L 	c #819C81",
"M 	c #7D977D",
"N 	c #7E987E",
"O 	c #899F89",
"P 	c #8CA08C",
"Q 	c #798F79",
"R 	c #5F7A5F",
"S 	c #CBD9CB",
"T 	c #E2EAE2",
"U 	c #EBF0EB",
"V 	c #E9EFE9",
"W 	c #D5E0D5",
"X 	c #BFCDBF",
"Y 	c #A2B4A2",
"Z 	c #5F7C5F",
"` 	c #718D71",
" .	c #889F88",
"..	c #92A992",
"+.	c #91A691",
"@.	c #809780",
"#.	c #718971",
"$.	c #668066",
"%.	c #5A755A",
"&.	c #5A775A",
"*.	c #003E00",
"=.	c #8C9E8C",
"-.	c #CCD6CC",
";.	c #E4EBE4",
">.	c #E0E9E0",
",.	c #D7E3D7",
"'.	c #CFDDCF",
").	c #C9D6C9",
"!.	c #B8C8B8",
"~.	c #5C775C",
"{.	c #ABBBAB",
"].	c #99AE99",
"^.	c #90A790",
"/.	c #839B83",
"(.	c #759075",
"_.	c #6F886F",
":.	c #6C856C",
"<.	c #648064",
"[.	c #004D00",
"}.	c #8C9C8C",
"|.	c #C2CCC2",
"1.	c #CED8CE",
"2.	c #D0DCD0",
"3.	c #CCDACC",
"4.	c #BECCBE",
"5.	c #718571",
"6.	c #5F795F",
"7.	c #627962",
"8.	c #92A492",
"9.	c #819981",
"0.	c #748F74",
"a.	c #627D62",
"b.	c #2B582B",
"c.	c #2B542B",
"d.	c #758875",
"e.	c #A1B0A1",
"f.	c #B0BFB0",
"g.	c #647964",
"h.	c #7A927A",
"i.	c #345A34",
"j.	c #546A54",
"k.	c #859785",
"l.	c #6A856A",
"m.	c #2B562B",
"n.	c #547254",
"o.	c #4D6C4D",
"p.	c #004700",
"q.	c #819881",
"r.	c #375A37",
"s.	c #4F644F",
"t.	c #003700",
"u.	c #001600",
"v.	c #91A68F",
"w.	c #90A78F",
"x.	c #758F75",
"y.	c #617C61",
"z.	c #6D876D",
"A.	c #8CA28C",
"B.	c #4A6C4A",
"C.	c #3E623E",
"D.	c #001F00",
"E.	c #003400",
"F.	c #164D16",
"G.	c #8FA48D",
"H.	c #88A088",
"I.	c #7E977E",
"J.	c #95AD95",
"K.	c #567556",
"L.	c #375F37",
"M.	c #1F511F",
"N.	c #164F16",
"O.	c #8CA38C",
"P.	c #92AA92",
"Q.	c #9FB69F",
"R.	c #587758",
"S.	c #416641",
"T.	c #152015",
"U.	c #9CB29B",
"V.	c #000200",
"W.	c #182217",
"X.	c #050605",
"Y.	c #000500",
"                    . . . . . . .               ",
"                    + @ # # $ % .               ",
"                    . & * * = = .               ",
"              . . . . - * * = = . . . .         ",
"                . ; > , * * = = = ' .           ",
"                  . ) * * * = = ! .             ",
"                    . ~ * * = ! .               ",
"                  . . . { * ' . . .             ",
"            ] . . ^ / ( . _ . : < [ . .         ",
"          . . } | 1 . . 2 . 3 4 5 6 7 8 . .     ",
"        . 9 0 a b c d c 2 e f g h i j k l . .   ",
"        . m n o p q r s t u v w x y z A B .     ",
"      . C D E F G H I J K L x M N O P Q R . .   ",
"    . S T U V E W X Y k Z `  ...+.@.#.$.%.&.*.. ",
"    . =.-.;.;.>.,.'.).!.~.{.].^./.(._.:.<.[.. . ",
"      . . }.|.1.2.3.4.5.6.7.8. .9.0.a.b.. .     ",
"          . c.d.e.f.g.c.h.i.j.k.l.m.. . .       ",
"          . H n.o.p p.~.q.q r.s.t.. u.b .       ",
"          . v.w.x.K y.z.A.B.C.p.D.d E.F..       ",
"            . . G.H./.I.J.K.B.L.M.N.. .         ",
"                . . O.P.Q.Z R.S.. .             ",
"                  T.. . U.&.. V..               ",
"                      W.X.. Y.                  ",
"                                                "};
