/* XPM */
static char * mic_xpm[] = {
"24 24 94 2",
"  	c None",
". 	c #000000",
"+ 	c #525252",
"@ 	c #DADADB",
"# 	c #FAFAFB",
"$ 	c #F1F1F3",
"% 	c #F8F8F9",
"& 	c #DDDCDD",
"* 	c #DAD9DA",
"= 	c #F3F2F5",
"- 	c #D6D5DC",
"; 	c #E8E8EB",
"> 	c #B7B5BD",
", 	c #D4D2D7",
"' 	c #69666C",
") 	c #DCDCE2",
"! 	c #ECEBEE",
"~ 	c #C1BFC7",
"{ 	c #D8D6DB",
"] 	c #908F96",
"^ 	c #8C8A8F",
"/ 	c #F3F1F4",
"( 	c #EFEFF2",
"_ 	c #CAC7D1",
": 	c #DFDEE3",
"< 	c #9D9CA4",
"[ 	c #BDBBC1",
"} 	c #434246",
"| 	c #FAFAFA",
"1 	c #D4D2D9",
"2 	c #E8E6EB",
"3 	c #B1B0BA",
"4 	c #C9C7CE",
"5 	c #74717A",
"6 	c #717076",
"7 	c #F1F0F3",
"8 	c #EDECF0",
"9 	c #C3C1CA",
"0 	c #D8D6DD",
"a 	c #8C8995",
"b 	c #A8A6AF",
"c 	c #323236",
"d 	c #F9F9FA",
"e 	c #CFCED6",
"f 	c #E4E2E7",
"g 	c #A8A7B1",
"h 	c #C3C1C8",
"i 	c #65626C",
"j 	c #616165",
"k 	c #F0EEF1",
"l 	c #EBEAEE",
"m 	c #BEBBC6",
"n 	c #D5D4DA",
"o 	c #84808C",
"p 	c #9E9DA6",
"q 	c #2D2C30",
"r 	c #DFDEE2",
"s 	c #9C9AA4",
"t 	c #B8B6BE",
"u 	c #59575F",
"v 	c #5D5B61",
"w 	c #ECEAED",
"x 	c #E3E2E6",
"y 	c #A8A7B0",
"z 	c #C7C5CC",
"A 	c #727178",
"B 	c #929099",
"C 	c #28262A",
"D 	c #E8E7EA",
"E 	c #B5B3BA",
"F 	c #CCCCD2",
"G 	c #85848A",
"H 	c #A5A4AB",
"I 	c #4A494F",
"J 	c #4D4C51",
"K 	c #868488",
"L 	c #37363A",
"M 	c #616163",
"N 	c #242326",
"O 	c #444449",
"P 	c #4B4B4B",
"Q 	c #616161",
"R 	c #7F7F7F",
"S 	c #202020",
"T 	c #686868",
"U 	c #67645B",
"V 	c #565248",
"W 	c #1B1B1B",
"X 	c #AFADA9",
"Y 	c #85827B",
"Z 	c #77746C",
"` 	c #4C4940",
" .	c #3B3A32",
"..	c #201F1A",
"                  . . . . .                     ",
"                + @ # $ % & .                   ",
"              . * = - ; > , ' .                 ",
"              . # ) ! ~ { ] ^ .                 ",
"              . / ( _ : < [ } .                 ",
"              . | 1 2 3 4 5 6 .                 ",
"          . . . 7 8 9 0 a b c . . .             ",
"          .   . d e f g h i j .   .             ",
"          .   . k l m n o p q .   .             ",
"          .   . % _ r s t u v .   .             ",
"          .   . w x y z A B C .   .             ",
"          .   . D E F G H I J .   .             ",
"          .     . K L M N O . .   .             ",
"          .       . . . . . .     .             ",
"            .                   .               ",
"              . . . . . . . . .                 ",
"                    P Q .                       ",
"                    P R .                       ",
"                    P R .                       ",
"                    S T .                       ",
"        . . . . . . U . V . . . . . .           ",
"      W X Y Z V V V V V V V V V `  ....         ",
"      . . . . . . . . . . . . . . . . .         ",
"                                                "};
