/* XPM */
static char *peachspeak[] = {
/* columns rows colors chars-per-pixel */
"28 32 254 2",
"   c #690F0E",
".  c #6D100E",
"X  c #6E1A16",
"o  c #75120E",
"O  c #79130F",
"+  c #7D1410",
"@  c #7A1815",
"#  c #76381F",
"$  c #7D3716",
"%  c #7C2623",
"&  c #773C22",
"*  c #7D3E22",
"=  c #85160F",
"-  c #8E180C",
";  c #821610",
":  c #851F16",
">  c #8A1710",
",  c #8E1B12",
"<  c #961F0F",
"1  c #981D0E",
"2  c #921C12",
"3  c #9A1F14",
"4  c #812216",
"5  c #822118",
"6  c #812D15",
"7  c #882417",
"8  c #8B2618",
"9  c #8D2C16",
"0  c #8E281F",
"q  c #863915",
"w  c #843D1A",
"e  c #8F3515",
"r  c #8C3C17",
"t  c #8A3E18",
"y  c #96210F",
"u  c #9A220F",
"i  c #962615",
"p  c #952318",
"a  c #942B1B",
"s  c #9C2211",
"d  c #9B251A",
"f  c #98281A",
"g  c #923A17",
"h  c #953D19",
"j  c #9B3919",
"k  c #933726",
"l  c #A61E15",
"z  c #A81F16",
"x  c #A42114",
"c  c #A4261A",
"v  c #A62916",
"b  c #A42A1B",
"n  c #A82217",
"m  c #AB2519",
"M  c #AD291C",
"N  c #A2371A",
"B  c #AE311D",
"V  c #B22D1E",
"C  c #AE2E20",
"Z  c #AD3426",
"A  c #AD3A24",
"S  c #AE382B",
"D  c #A93D30",
"F  c #B52E20",
"G  c #B82F21",
"H  c #B63323",
"J  c #B23C2A",
"K  c #BB3324",
"L  c #B93C2A",
"P  c #8E411A",
"I  c #9A461D",
"U  c #824D34",
"Y  c #874D3D",
"T  c #8C423B",
"R  c #934B22",
"E  c #975024",
"W  c #9D5E35",
"Q  c #A3421D",
"!  c #A64520",
"~  c #AB4421",
"^  c #AB4A22",
"/  c #A75A26",
"(  c #AE5425",
")  c #B54F27",
"_  c #B94126",
"`  c #BD402D",
"'  c #B34434",
"]  c #B7473B",
"[  c #B74C3E",
"{  c #BC4633",
"}  c #BD4738",
"|  c #BE4837",
" . c #B55728",
".. c #B45A28",
"X. c #BB5D2B",
"o. c #B4513E",
"O. c #AB612C",
"+. c #B1662A",
"@. c #BF662E",
"#. c #946144",
"$. c #95644A",
"%. c #BD574B",
"&. c #B4665C",
"*. c #B36953",
"=. c #BE6B54",
"-. c #BB6F5C",
";. c #AE736A",
":. c #B67A61",
">. c #B87C72",
",. c #C13726",
"<. c #C23728",
"1. c #C33A29",
"2. c #C4412C",
"3. c #C9432D",
"4. c #C54635",
"5. c #C54E39",
"6. c #CE4B34",
"7. c #C1562D",
"8. c #CF5136",
"9. c #CF5038",
"0. c #CA5F33",
"q. c #D25638",
"w. c #D25C3B",
"e. c #C3662F",
"r. c #CA7133",
"t. c #CF7D39",
"y. c #D17037",
"u. c #D47539",
"i. c #D07837",
"p. c #DA7D3F",
"a. c #C55746",
"s. c #C6574A",
"d. c #C2584A",
"f. c #CB624C",
"g. c #C76154",
"h. c #C2695C",
"j. c #CC6455",
"k. c #CA665A",
"l. c #D06344",
"z. c #DA7241",
"x. c #DD7C45",
"c. c #D47859",
"v. c #CB6E64",
"b. c #C87367",
"n. c #CC7769",
"m. c #D1796D",
"M. c #A7866F",
"N. c #B29779",
"B. c #BC9275",
"V. c #BA997E",
"C. c #C68436",
"Z. c #C8853F",
"A. c #CE943C",
"S. c #CA9B3F",
"D. c #D78D3F",
"F. c #DA823F",
"G. c #DF8045",
"H. c #DE8B43",
"J. c #D79842",
"K. c #D99B44",
"L. c #C3837C",
"P. c #D68166",
"I. c #DD8D6F",
"U. c #D08279",
"Y. c #D88374",
"T. c #DAA546",
"R. c #D7AC53",
"E. c #C7A07B",
"W. c #E09546",
"Q. c #E49A4B",
"!. c #E4A14D",
"~. c #E6A05A",
"^. c #E3AB52",
"/. c #EAAC56",
"(. c #E2BC50",
"). c #EFB95F",
"_. c #EFBC61",
"`. c #E0C24F",
"'. c #E3C454",
"]. c #E8CE5C",
"[. c #ECC363",
"{. c #EACF62",
"}. c #ECCF6E",
"|. c #E8C57F",
" X c #ECD165",
".X c #EED26C",
"XX c #F0C263",
"oX c #F1CD69",
"OX c #F0C874",
"+X c #F0D46D",
"@X c #F0D977",
"#X c #B38480",
"$X c #B39786",
"%X c #B59886",
"&X c #BA9E88",
"*X c #C48C83",
"=X c #C49181",
"-X c #C59B8E",
";X c #D88D81",
":X c #D3928A",
">X c #DF9F95",
",X c #C1AA96",
"<X c #C3AD98",
"1X c #C8B39C",
"2X c #D9A198",
"3X c #C8ADAA",
"4X c #D9B9B5",
"5X c #E09386",
"6X c #E09B92",
"7X c #E1A49A",
"8X c #E1AC91",
"9X c #E5AB9F",
"0X c #E4BC84",
"qX c #E4B5AC",
"wX c #E3BFAB",
"eX c #EAB4A5",
"rX c #ECB9AC",
"tX c #E6BEB7",
"yX c #E9BDB3",
"uX c #DACCBB",
"iX c #DCD0BE",
"pX c #E9C09F",
"aX c #EED888",
"sX c #F1DA8A",
"dX c #F0DD94",
"fX c #EBC5A3",
"gX c #EDC3BC",
"hX c #EACBB7",
"jX c #ECD4B6",
"kX c #F0CEB5",
"lX c #F0D9BB",
"zX c #F4E3A2",
"xX c #F2E0B1",
"cX c #F5EAB4",
"vX c #DACCC1",
"bX c #E1D6C7",
"nX c #E5DDD4",
"mX c #EEDCDA",
"MX c #F3DEDA",
"NX c #ECE3DC",
"BX c #EFEBDF",
"VX c #F3E3DD",
"CX c #F9F3DC",
"ZX c #F6E7E4",
"AX c #F6EAE5",
"SX c #F7EDEA",
"DX c #F8EBE9",
"FX c #F7F5ED",
"GX c #FBF6E4",
"HX c #FAF0EE",
"JX c #FAF4F1",
"KX c #FDFBF4",
"LX c #FEFEFE",
"PX c None",
/* pixels */
"PXPXPXPXFXiX_.0XxXKXLXLXPXPXPXPXPXPXPXPXPXPXPXPXPXPXPXPX",
"PXPXPXAXE.H.K.(..XsXaXcXCXLXPXPXPXPXPXPXPXPXPXPXPXPXPXPX",
"PXPXFXV.O.C.R.'.+X].'.].@XzXGXLXPXPXPXPXPXPXPXPXPXPXPXPX",
"PXLX1XW O.J.(.{.+X{.S.(.]. XsXGXPXPXPXPXPXPXPXPXPXPXPXPX",
"PXbX#.R O.C.J.^.[..XR.'.{.{.}.zXLXPXPXPXPXPXPXPXPXPXPXPX",
"FXM.* E / O.X.C.!./.XX}.+X+XoXOXCXPXPXPXPXPXPXPXPXPXPXPX",
"iXU w R I ( X.r.D.W.Q./.).)./.~.jXPXPXPXPXPXPXPXPXPXPXPX",
",X& w t h ~  .e.i.G.H.Q.Q.Q.G.x.fXLXPXPXPXPXPXPXPXPXPXPX",
"$X# $ q r Q ^ ..e.y.u.p.x.z.q.w.pXLXPXPXPXPXPXPXPXPXPXPX",
"$X& $ q g Q ^ ^ ) 7.0.w.w.8.3.w.hXPXPXPXPXPXPXPXPXPXPXPX",
"<X# q q r Q ~ Q Q _ 2.2.1.K K l.fXmXJXLXPXPXPXPXPXPXPXPX",
"uXU w t e j Q Q A K H F M M L { S S %.U.qXZXLXPXPXPXPXPX",
"BX$.t P g j N N B K M M m H L s 2 < 1 1 n ] :XHXPXPXPXPX",
"LX&Xw r 9 9 i i M B M c H ` M s y y s y u s x k.ZXPXPXPX",
"PXNX#.6 @ 4 9 a a i d b S K n l l l s s u s l l v.HXPXPX",
"PXLXvXY 4 f p 8 7 7 7 k A K n l l l l l l s l l m 7XLXPX",
"PXPXLXnX*XD @   . % ;.-.<.K l n l l l l l l l l l } MXPX",
"PXPXPXPXLXVX;.X   #XVXk.<.K l l l l l n l l l l l m >XPX",
"PXPXPXPXPXPX*X7 o T -X4.<.K x x l l n n n n l l l l s.SX",
"PXPXPXPXPXPXL.> X 3XqX1.<.K 2 2 l l n n n n l l l l H gX",
"PXPXPXPXPXPX4X0 : &.} ,.K K , , , 2 Z =.S z l l s s m 7X",
"PXPXPXPXPXPXKX>.c m K K G K 2 + O > o.N.*.n l x s u x m.",
"PXPXPXPXPXLXVXn.G V V G G K p o o = J B.:.n z l u u l g.",
"PXPXPXPXKXqX[ n m n n M F K d + o = 3 ' ' n n l u u s { ",
"PXPXPXPXtXM l l m n n n V G C ; = = 2 3 z n n l s u u H ",
"PXPXPXLXb.l l l n n n m V G K , ; < 3 l z n n l s u u V ",
"PXPXPXLXh.l n n m m V M K ,.,.c ; > s l l n z l x u u V ",
"PXPXPXPX>Xm n M G ,.<.,.1.1.<.K 2 2 s l z l l l u u u H ",
"PXPXPXPXZXk.K 1.3.1.3.6.3.1.<.1.M 3 l l z l l l y u u a.",
"PXPXPXPXPXZX9X5XqXgXgXrXeXyXY.8.9.H z l z z l s u u v >X",
"PXPXPXPXPXPXPXPXPXPXPXPXPXPXHXeXI.c.5.V m n s s u v m.DX",
"PXPXPXPXPXPXPXPXPXPXPXPXPXPXPXLXZXhX8XP.f.a.{ H | ;XZXPX"
};
