/* XPM */
static char * delch_xpm[] = {
"24 24 176 2",
"  	c None",
". 	c #000000",
"+ 	c #7E1D1D",
"@ 	c #FF5050",
"# 	c #E84444",
"$ 	c #2B0B0B",
"% 	c #080303",
"& 	c #BE4244",
"* 	c #FF7C7E",
"= 	c #E95E62",
"- 	c #1C090A",
"; 	c #BD2527",
"> 	c #FF7777",
", 	c #FF8687",
"' 	c #FF7D7E",
") 	c #561616",
"! 	c #0E0505",
"~ 	c #FF8B90",
"{ 	c #FFC5C9",
"] 	c #FFC2C6",
"^ 	c #FFC7CC",
"/ 	c #FF999D",
"( 	c #090303",
"_ 	c #0A0202",
": 	c #FF5659",
"< 	c #FF6667",
"[ 	c #FF686B",
"} 	c #FF6E71",
"| 	c #561414",
"1 	c #0C0304",
"2 	c #FF8487",
"3 	c #FFBBBF",
"4 	c #FFB4B8",
"5 	c #FFB7BC",
"6 	c #FFB6BA",
"7 	c #FFC3C8",
"8 	c #AE3E3F",
"9 	c #160303",
"0 	c #FF5153",
"a 	c #FF5B5D",
"b 	c #FF6064",
"c 	c #FF6A6C",
"d 	c #FF6E70",
"e 	c #FF797C",
"f 	c #FF7C7D",
"g 	c #561416",
"h 	c #0E0404",
"i 	c #FF7779",
"j 	c #FFA9AD",
"k 	c #FFA6AA",
"l 	c #FFB1B3",
"m 	c #D95455",
"n 	c #FF383A",
"o 	c #FF5357",
"p 	c #FF5D60",
"q 	c #FF6669",
"r 	c #FF6D6D",
"s 	c #691818",
"t 	c #FF6666",
"u 	c #FF9699",
"v 	c #FF9EA2",
"w 	c #FFABAF",
"x 	c #FFB9BE",
"y 	c #431618",
"z 	c #270606",
"A 	c #FF4143",
"B 	c #FF5155",
"C 	c #FF5B5E",
"D 	c #FF6367",
"E 	c #FF7274",
"F 	c #FF8485",
"G 	c #FF9091",
"H 	c #FF9B9F",
"I 	c #FFA4A8",
"J 	c #FFB1B4",
"K 	c #C44446",
"L 	c #2A0506",
"M 	c #FF4041",
"N 	c #FF5051",
"O 	c #FF585C",
"P 	c #FF686A",
"Q 	c #FF7576",
"R 	c #FF8B8D",
"S 	c #FF9496",
"T 	c #FFA2A5",
"U 	c #BF3B3F",
"V 	c #FF3B3E",
"W 	c #FF4D4F",
"X 	c #FF5052",
"Y 	c #FF585A",
"Z 	c #FF6060",
"` 	c #FF6D6F",
" .	c #FF7575",
"..	c #FF8183",
"+.	c #BA3436",
"@.	c #270505",
"#.	c #FF3639",
"$.	c #FF484C",
"%.	c #FF5658",
"&.	c #FF6365",
"*.	c #FF7072",
"=.	c #A3282A",
"-.	c #050000",
";.	c #FF2529",
">.	c #FF3D42",
",.	c #FF4345",
"'.	c #FF5355",
").	c #FF6062",
"!.	c #4A0F11",
"~.	c #0A0001",
"{.	c #FF1C1F",
"].	c #FF2F34",
"^.	c #FF3136",
"/.	c #FF383E",
"(.	c #FF4042",
"_.	c #FF5D5F",
":.	c #511113",
"<.	c #0A0000",
"[.	c #FF0C12",
"}.	c #FF1C23",
"|.	c #FF2026",
"1.	c #FF282E",
"2.	c #FF3D40",
"3.	c #FF464A",
"4.	c #4F1111",
"5.	c #090000",
"6.	c #FF040C",
"7.	c #FF0914",
"8.	c #FF0E17",
"9.	c #FF171E",
"0.	c #FF1F26",
"a.	c #FF252B",
"b.	c #FF2D32",
"c.	c #FF363B",
"d.	c #FF3B3F",
"e.	c #FF4145",
"f.	c #FF6164",
"g.	c #4E1011",
"h.	c #CE030A",
"i.	c #FF0912",
"j.	c #FF0C16",
"k.	c #FF121C",
"l.	c #BF1115",
"m.	c #FF2A2E",
"n.	c #FF484A",
"o.	c #FF6163",
"p.	c #1A0606",
"q.	c #110001",
"r.	c #FF0F1B",
"s.	c #8F080B",
"t.	c #2B0305",
"u.	c #FF2A2F",
"v.	c #FF4648",
"w.	c #A31F21",
"x.	c #840306",
"y.	c #280305",
"z.	c #FF282D",
"A.	c #FF3339",
"B.	c #A81D1D",
"C.	c #D80309",
"D.	c #820306",
"E.	c #2A0303",
"F.	c #FF4347",
"G.	c #1B0404",
"H.	c #0C0000",
"I.	c #B30308",
"J.	c #FF060D",
"K.	c #590102",
"L.	c #1B0202",
"M.	c #F2161B",
"N.	c #FF282C",
"O.	c #3C0808",
"P.	c #030000",
"Q.	c #020000",
"R.	c #040000",
"S.	c #010000",
"                                                ",
"                                                ",
"                                                ",
"            .                       .           ",
"        . + @ # $               % & * = -       ",
"      . ; > * , ' )           ! ~ { ] ^ / (     ",
"      _ : < [ } ' * |       1 2 3 4 5 6 7 8     ",
"      9 0 a b c d e f g . h i j k l 5 6 7 m     ",
"      . n o : p q r i i s t / u v k w 6 x y     ",
"        z A B o C D [ E ' F , G u H I J K .     ",
"          L M N B O b P d Q ' , R S T U .       ",
"            L V W X Y Z D `  .f ..G +..         ",
"              @.#.$.N %.C &.c *.e =..           ",
"              -.;.>.,.W '.O ).P r !.            ",
"            ~.{.].^./.(.$.0 : _.P c :.          ",
"          <.[.}.|.1.].#.2.3.N %.a D P 4.        ",
"        5.6.7.8.9.0.a.b.c.d.e.W B Y f.D g.      ",
"      . h.7.i.i.j.k.}.a.l.m.V (.n.X %.o.p p.    ",
"      q.i.i.i.i.i.i.r.s.. t.u.c.2.v.N '.f.w.    ",
"      q.i.i.i.i.i.7.x..     y.z.A./.e.n.O B.    ",
"      . C.7.i.7.7.D..         E.a.A./.F.,.G.    ",
"        H.I.J.J.K..             L.M.z.N.O.      ",
"          . P.Q.                  . R.S.        ",
"                                                "};
