/* XPM */
static char * speaker_xpm[] = {
"24 24 231 2",
"  	c None",
". 	c #000000",
"+ 	c #1E1F1F",
"@ 	c #121212",
"# 	c #282B2F",
"$ 	c #46494E",
"% 	c #ACB1B9",
"& 	c #A0A7B5",
"* 	c #B2B9C5",
"= 	c #595D5E",
"- 	c #2D3034",
"; 	c #B4B6BA",
"> 	c #90949A",
", 	c #5D6471",
"' 	c #293549",
") 	c #535B6C",
"! 	c #ADB3BE",
"~ 	c #565B61",
"{ 	c #464749",
"] 	c #BEC1C3",
"^ 	c #6C7076",
"/ 	c #2D333B",
"( 	c #212A3B",
"_ 	c #233048",
": 	c #263450",
"< 	c #575F6E",
"[ 	c #C2CBD9",
"} 	c #2F2F2F",
"| 	c #BBBEC4",
"1 	c #5E6268",
"2 	c #1C212B",
"3 	c #1E252D",
"4 	c #1E2633",
"5 	c #212D42",
"6 	c #283B5A",
"7 	c #1F2D48",
"8 	c #7D8595",
"9 	c #484F5B",
"0 	c #050506",
"a 	c #A1A7B1",
"b 	c #61676E",
"c 	c #1D242D",
"d 	c #1E242D",
"e 	c #202B3D",
"f 	c #2A385A",
"g 	c #263758",
"h 	c #4C586F",
"i 	c #7B899C",
"j 	c #0E0E0E",
"k 	c #5A5A5A",
"l 	c #898D94",
"m 	c #232A34",
"n 	c #1E2530",
"o 	c #21272E",
"p 	c #20262C",
"q 	c #1D252E",
"r 	c #1F2C43",
"s 	c #253655",
"t 	c #2B4065",
"u 	c #2A3B59",
"v 	c #97A9C6",
"w 	c #3E3E3E",
"x 	c #AEB1B7",
"y 	c #3F454E",
"z 	c #1D232D",
"A 	c #1F252E",
"B 	c #21262C",
"C 	c #1F2832",
"D 	c #344361",
"E 	c #3E5071",
"F 	c #263655",
"G 	c #334A6F",
"H 	c #2B3D5E",
"I 	c #95A9C8",
"J 	c #2A2A2A",
"K 	c #717171",
"L 	c #6E7279",
"M 	c #1B212C",
"N 	c #1F242D",
"O 	c #1F2530",
"P 	c #3D4D6A",
"Q 	c #7D97BF",
"R 	c #7993BB",
"S 	c #344869",
"T 	c #344871",
"U 	c #384C72",
"V 	c #8CA2C2",
"W 	c #1C1C1C",
"X 	c #A9ADB3",
"Y 	c #171E2C",
"Z 	c #21262E",
"` 	c #1D2127",
" .	c #3B475A",
"..	c #93AACF",
"+.	c #869FC9",
"@.	c #738EBA",
"#.	c #3B4C6B",
"$.	c #384C73",
"%.	c #4D658C",
"&.	c #607490",
"*.	c #545454",
"=.	c #9398A0",
"-.	c #242D3E",
";.	c #232B38",
">.	c #1E2431",
",.	c #8EA0BE",
"'.	c #BED8F8",
").	c #7A97C5",
"!.	c #566E9C",
"~.	c #37475F",
"{.	c #506794",
"].	c #627FB1",
"^.	c #424F64",
"/.	c #07090C",
"(.	c #1A1B1E",
"_.	c #AAAAAA",
":.	c #333F55",
"<.	c #303C54",
"[.	c #313D55",
"}.	c #303B4F",
"|.	c #344159",
"1.	c #ADC2E2",
"2.	c #9BB7E2",
"3.	c #3D5379",
"4.	c #617393",
"5.	c #6381B3",
"6.	c #556D92",
"7.	c #293547",
"8.	c #364865",
"9.	c #B7C0CE",
"0.	c #31405D",
"a.	c #384867",
"b.	c #394A66",
"c.	c #3C4C67",
"d.	c #4A5C7D",
"e.	c #8DA6CB",
"f.	c #5C79AA",
"g.	c #34476E",
"h.	c #A2B8D5",
"i.	c #6F8DBE",
"j.	c #394457",
"k.	c #232D3E",
"l.	c #303F5B",
"m.	c #343434",
"n.	c #92A0B7",
"o.	c #394C6B",
"p.	c #3D4F6D",
"q.	c #465877",
"r.	c #627698",
"s.	c #4B5C7B",
"t.	c #24324D",
"u.	c #1F2839",
"v.	c #8997AE",
"w.	c #BAD0F5",
"x.	c #556688",
"y.	c #161A23",
"z.	c #222C3E",
"A.	c #121822",
"B.	c #353535",
"C.	c #8694AC",
"D.	c #415476",
"E.	c #506184",
"F.	c #586A8C",
"G.	c #6A7B9E",
"H.	c #99AECC",
"I.	c #B0BFD8",
"J.	c #8D97AA",
"K.	c #B7C1D3",
"L.	c #E8F9FF",
"M.	c #596780",
"N.	c #212A3A",
"O.	c #080B0F",
"P.	c #1D2432",
"Q.	c #010102",
"R.	c #1F1F1F",
"S.	c #7A8BA7",
"T.	c #415373",
"U.	c #7588A9",
"V.	c #8194B4",
"W.	c #A3B4D0",
"X.	c #D6E5FB",
"Y.	c #FFFFFF",
"Z.	c #8294B1",
"`.	c #2E3A4D",
" +	c #070910",
".+	c #070A0E",
"++	c #222A3B",
"@+	c #838E9E",
"#+	c #394B6B",
"$+	c #76849E",
"%+	c #A2ACBB",
"&+	c #CCD4D7",
"*+	c #F0F0F0",
"=+	c #F9FFFF",
"-+	c #8797B0",
";+	c #1D222D",
">+	c #0E1218",
",+	c #101724",
"'+	c #2A3141",
")+	c #0C0C0C",
"!+	c #6D6D6D",
"~+	c #4F5F7A",
"{+	c #606D85",
"]+	c #A2ADBB",
"^+	c #BEC5C8",
"/+	c #E2E2E2",
"(+	c #F6FFFF",
"_+	c #8290A7",
":+	c #242A36",
"<+	c #0D1012",
"[+	c #141516",
"}+	c #2B2B2B",
"|+	c #5E6572",
"1+	c #767F8D",
"2+	c #C5C5C5",
"3+	c #E4E4E4",
"4+	c #999A9A",
"5+	c #454C57",
"6+	c #1D2530",
"7+	c #0A0B0C",
"8+	c #010101",
"9+	c #191919",
"0+	c #2B313C",
"a+	c #232A36",
"b+	c #1C242E",
"c+	c #060912",
"d+	c #0D1014",
"e+	c #060607",
"f+	c #020202",
"g+	c #070809",
"h+	c #030303",
"        .                                       ",
"        . .               + @ . .               ",
"        .   .         # $ % & * = .             ",
"      . .           - ; > , ' ) ! ~ .           ",
"    . . .         { ] ^ / ( _ : < [ .           ",
"      .         } | 1 2 3 4 5 6 7 8 9 .         ",
"              0 a b c d 3 3 e f g h i .         ",
"            j k l m n o p q r s t u v .         ",
"            w x y z A B C D E F G H I .         ",
"          J K L M d N O P Q R S T U V .         ",
"          W X Y A Z `  ...+.@.#.$.%.&..         ",
"          *.=.-.;.m >.,.'.).!.~.{.].^.. /.      ",
"        (._.:.<.[.}.|.1.2.].3.4.5.6.7.8..       ",
"        . 9.0.a.b.c.d.e.f.g.[.h.i.j.k.l..       ",
"        m.n.o.p.E q.r.s.t.u.v.w.x.y.z.A..       ",
"        B.C.D.E.F.G.H.I.J.K.L.M.N.O.P.. Q.      ",
"        R.S.T.U.V.W.X.Y.Y.Y.Z.`. +.+++.         ",
"        . @+#+$+%+&+*+Y.=+-+;+>+,+'+. .         ",
"        )+!+~+{+]+^+/+(+_+:+<+. . . .           ",
"        [+}+|+1+2+3+4+5+6+7+. . 8+8+8+          ",
"          [+9+0+a+b+c+d+e+. . f+f+f+f+f+        ",
"            g+. . . . . . 8+h+h+f+f+8+          ",
"                      8+f+f+8+                  ",
"                                                "};
